HIERARCHY
ROOT Hips
{
  OFFSET 0 0 0
  CHANNELS 6 Xposition Yposition Zposition Zrotation Yrotation Xrotation
  JOINT LeftThigh
  {
    OFFSET 8.409438 0 -5.917753
    CHANNELS 3 Zrotation Yrotation Xrotation
    JOINT LeftLeg
    {
      OFFSET 0 0 -42.358652
      CHANNELS 3 Zrotation Yrotation Xrotation
      JOINT LeftFoot
      {
        OFFSET 0 0 -39.357303
        CHANNELS 3 Zrotation Yrotation Xrotation
      }
    }
  }
  JOINT RightThigh
  {
    OFFSET -8.409438 0 -5.917753
    CHANNELS 3 Zrotation Yrotation Xrotation
    JOINT RightLeg
    {
      OFFSET 0 0 -42.358652
      CHANNELS 3 Zrotation Yrotation Xrotation
      JOINT RightFoot
      {
        OFFSET 0 0 -39.357303
        CHANNELS 3 Zrotation Yrotation Xrotation
      }
    }
  }
  JOINT SpineLow
  {
    OFFSET 0 0 4.719101
    CHANNELS 3 Zrotation Yrotation Xrotation
    JOINT SpineMid
    {
      OFFSET 0 0 12.899191
      CHANNELS 3 Zrotation Yrotation Xrotation
      JOINT Chest
      {
        OFFSET 0 0 12.899191
        CHANNELS 3 Zrotation Yrotation Xrotation
        JOINT LeftShoulder
        {
          OFFSET 7.550562 1.41573 9.438202
          CHANNELS 3 Zrotation Yrotation Xrotation
          JOINT LeftArm
          {
            OFFSET 9.155056 0 4.247191
            CHANNELS 3 Zrotation Yrotation Xrotation
            JOINT LeftForearm
            {
              OFFSET 0 0 25.771955
              CHANNELS 3 Zrotation Yrotation Xrotation
              JOINT LeftHand
              {
                OFFSET 0 0 25.197169
                CHANNELS 3 Zrotation Yrotation Xrotation
              }
            }
          }
        }
        JOINT RightShoulder
        {
          OFFSET -7.550562 1.41573 9.438202
          CHANNELS 3 Zrotation Yrotation Xrotation
          JOINT RightArm
          {
            OFFSET -9.155056 0 4.247191
            CHANNELS 3 Zrotation Yrotation Xrotation
            JOINT RightForearm
            {
              OFFSET 0 0 -25.771955
              CHANNELS 3 Zrotation Yrotation Xrotation
              JOINT RightHand
              {
                OFFSET 0 0 -25.197169
                CHANNELS 3 Zrotation Yrotation Xrotation
              }
            }
          }
        }
        JOINT Neck
        {
          OFFSET 0 0 15.101124
          CHANNELS 3 Zrotation Yrotation Xrotation
          JOINT Head
          {
            OFFSET 0 0 11.325843
            CHANNELS 3 Zrotation Yrotation Xrotation
            End Site
            {
              OFFSET 0 0 14.157303
            }
          }
        }
      }
    }
  }
}
MOTION
Frames: 8
Frame Time: 0.01
0.0  101.685394  0.0  -1.110603  -4.975724  -103.164301  30.427138  -23.296261  5.17312  -2.815047  5.113475  26.073572  10.475255  3.451598  6.254091  -12.667323  13.694398  -5.278359  10.648427  1.048617  22.096492  7.755394  3.109463  -1.931522  0.588781  -0.806966  1.995791  1.542081  -2.252469  5.437208  1.542081  -2.252469  5.437208  -10.429415  27.656236  4.353929  99.83438  70.258845  170.15015  -33.052693  -8.549719  100.090313  80.375948  7.235752  -10.94948  14.727317  -8.647577  29.17911  54.121415  61.73562  -28.012526  -32.281608  -5.346576  -88.995811  67.073267  6.172732  13.306653  7.575862  0.693861  -3.219203  5.685668  0.48059  -2.423416  
0.0  101.685394  0.0  -1.122049  -5.681761  -103.323257  31.140863  -23.623478  5.122237  -2.94604  5.219692  26.465973  10.514799  3.520579  6.277672  -12.386138  13.469678  -5.52657  10.776283  1.075273  22.604285  7.860993  3.190275  -1.909836  0.427359  -0.888213  1.968732  1.095421  -2.460694  5.36772  1.095421  -2.460694  5.36772  -9.984522  27.885939  4.722484  97.809714  70.547356  168.750856  -33.313437  -8.641592  99.629391  80.181835  7.343363  -10.679182  15.47179  -8.651397  29.90704  55.445126  59.840902  -26.793194  -31.416626  -7.350592  -89.308424  65.617905  6.394549  13.94728  8.249933  0.951644  -2.951539  6.192074  0.674051  -2.226933  
0.0  101.685394  0.0  -1.080863  -6.248959  -103.4167  31.783565  -23.827845  4.946033  -3.211621  5.37893  26.891597  10.636621  3.588514  6.309456  -11.843305  13.270384  -5.698908  10.9928  1.106915  23.078116  7.790533  3.269024  -1.867106  0.294589  -0.93185  2.095069  0.724155  -2.570398  5.717863  0.724155  -2.570398  5.717864  -10.362622  27.823673  3.972377  95.88225  70.795352  167.26848  -33.575538  -8.570983  99.188949  79.951672  7.456718  -10.631008  16.245981  -8.473803  29.629145  55.643909  58.180966  -26.720068  -30.396312  -9.028141  -89.195854  64.652233  6.930538  14.621692  8.92464  1.160919  -3.264207  6.699677  0.823254  -2.465651  
0.0  101.685394  0.0  -1.062674  -6.738758  -103.35805  32.674346  -24.077854  4.663656  -3.51423  5.566603  27.323234  10.567283  3.649857  6.216283  -11.587715  12.993056  -6.106978  11.267837  1.117978  23.583294  7.866731  3.418492  -1.79756  0.179733  -0.98535  2.17213  0.402545  -2.706984  5.932993  0.402545  -2.706984  5.932992  -10.55393  27.712195  3.339906  97.880783  70.700953  167.804225  -32.874457  -7.512512  100.551842  79.793481  7.782785  -10.818173  16.843533  -8.286404  29.467266  54.905606  56.632054  -27.220883  -28.872142  -10.878616  -89.0904  64.396802  7.567773  15.378628  9.356249  1.375851  -3.545805  7.02511  0.97791  -2.68104  
0.0  101.685394  0.0  -0.771117  -7.342547  -102.916862  33.700616  -23.833339  4.068989  -3.814879  5.761309  27.749415  10.634098  3.719703  6.244181  -10.989376  12.907759  -6.86232  11.589553  1.100906  24.08428  7.641028  3.514785  -1.788704  0.123184  -0.971141  2.184215  0.248824  -2.663143  5.968343  0.248824  -2.663143  5.968343  -10.915955  27.551096  2.864367  95.895764  70.810688  166.359849  -33.108087  -7.099597  100.114541  79.70597  8.477442  -11.223608  17.261047  -8.191319  29.13905  53.512298  55.348173  -27.94747  -26.576261  -13.078459  -89.279539  64.740751  8.106871  16.399684  9.800508  1.449852  -3.809409  7.359364  1.026655  -2.881039  
0.0  101.685394  0.0  -0.242887  -8.16249  -102.665139  34.829502  -23.536288  3.756758  -4.00663  5.951296  28.180338  10.551329  3.78071  6.21874  -10.042934  13.017708  -7.47078  12.036169  1.031542  24.639077  7.281791  3.617408  -1.819612  0.122038  -0.923444  2.264801  0.246896  -2.533015  6.18872  0.246896  -2.533015  6.188719  -11.210337  27.491283  2.215921  97.148783  70.831268  165.985237  -32.29876  -6.061614  101.690527  79.569073  9.546572  -11.89268  17.502166  -7.895262  28.301652  53.1811  54.176302  -27.791534  -24.367393  -14.672247  -89.757685  64.95441  8.136833  17.126948  10.100938  1.519269  -4.26212  7.586291  1.069409  -3.222564  
0.0  101.685394  0.0  0.168625  -9.180452  -102.894845  35.934282  -23.606982  3.744689  -4.199832  6.178579  28.672407  10.568206  3.83247  6.232202  -8.851496  13.101087  -7.55289  12.26492  1.038579  25.139181  7.096541  3.702359  -1.822683  0.154162  -0.894998  2.376813  0.333128  -2.458808  6.493804  0.333128  -2.458808  6.493804  -11.493623  27.458665  1.820103  94.642672  70.90419  164.052903  -32.480484  -6.150288  101.250418  79.407716  10.867149  -12.731977  17.721381  -7.706857  27.606131  53.655553  53.357409  -26.720941  -22.692904  -15.743824  -90.441886  64.8706  7.470797  17.085536  10.463018  1.59558  -4.510114  7.859036  1.119924  -3.410877  
0.0  101.685394  0.0  0.396908  -9.91871  -103.239635  36.840912  -23.93321  3.828671  -4.42235  6.40689  29.166833  10.400388  3.922784  6.134478  -7.853597  13.141487  -7.439484  12.651362  0.940647  25.690492  6.667073  3.756159  -1.893061  0.140473  -0.889138  2.445146  0.293776  -2.441703  6.681169  0.293776  -2.441703  6.681169  -11.2005  27.617917  1.916049  95.763494  70.766629  163.674805  -31.600934  -5.740579  102.853358  79.37561  12.286221  -13.625369  17.821843  -7.560689  27.16061  55.488882  53.164232  -24.624031  -22.10089  -16.790077  -90.998753  64.815825  6.276053  16.3471  10.81741  1.593946  -4.544487  8.124918  1.115498  -3.437645  
